<svg width="50" height="50" viewBox="0 0 50 50" fill="none" xmlns="http://www.w3.org/2000/svg">
<g clip-path="url(#clip0_201_3301)">
<path d="M44.513 20.3648C44.4339 20.3694 44.3552 20.3733 44.2764 20.3821C44.3545 20.3733 44.4339 20.3687 44.513 20.3648Z" fill="#2E89C4"/>
<path d="M48.0226 21.6964C47.4163 21.0901 46.6513 20.6669 45.8154 20.4756L45.7931 20.4981C45.4443 20.4066 45.0855 20.3583 44.7248 20.3544C44.6542 20.3544 44.5836 20.3604 44.513 20.3647C44.4339 20.3686 44.3545 20.3732 44.2764 20.382C44.1984 20.3908 44.1239 20.4025 44.0481 20.4148C42.9678 20.5867 41.9845 21.1392 41.276 21.9727C40.5675 22.8061 40.1804 23.8655 40.1846 24.9594C40.1889 26.0532 40.5843 27.1096 41.2993 27.9374C42.0143 28.7653 43.0018 29.3102 44.0833 29.4736C44.1539 29.4842 44.2218 29.4962 44.2916 29.5036C44.3948 29.5149 44.4996 29.5202 44.6048 29.5231C44.6531 29.5231 44.7012 29.5297 44.7496 29.5297C45.1236 29.5233 45.4953 29.4691 45.8556 29.3684L45.8323 29.4037C46.6279 29.217 47.3591 28.8209 47.9501 28.2565C48.5412 27.6921 48.9706 26.98 49.1938 26.1939C49.4171 25.4077 49.4261 24.5762 49.2199 23.7855C49.0138 22.9947 48.5999 22.2734 48.0212 21.6964H48.0226Z" fill="#2E89C4"/>
<path d="M44.2916 29.5035C44.3976 29.5144 44.4999 29.519 44.6048 29.5229C44.4996 29.519 44.3948 29.5147 44.2916 29.5035Z" fill="#2E89C4"/>
<path d="M44.7496 29.5297C45.1142 29.5308 45.4777 29.4885 45.8324 29.4037L45.8556 29.3684C45.4953 29.4691 45.1236 29.5233 44.7496 29.5297Z" fill="#2E89C4"/>
<path d="M44.7248 20.3545C45.0855 20.3584 45.4443 20.4066 45.7931 20.4982L45.8154 20.4756C45.458 20.3919 45.0919 20.3512 44.7248 20.3545Z" fill="#2E89C4"/>
<path d="M5.66388 20.8722C9.39926 21.5987 12.9645 23.0222 16.173 25.0682C20.0141 22.6334 23.2673 19.3771 25.6985 15.5338C23.6545 12.3267 22.2324 8.76353 21.5065 5.03035C21.4226 4.60188 21.4058 4.16299 21.4567 3.72937C20.593 7.9166 18.5286 11.7617 15.5159 14.7951C12.5031 17.8286 8.67227 19.9191 4.49106 20.8115C4.88292 20.7771 5.27766 20.7975 5.66388 20.8722Z" fill="#2E89C4"/>
<path d="M44.7496 29.5298C44.7008 29.5298 44.6532 29.5241 44.6048 29.5231C44.4989 29.5192 44.3958 29.5146 44.2916 29.5036C44.221 29.4959 44.1526 29.4853 44.0833 29.4736C43.0018 29.3102 42.0143 28.7653 41.2993 27.9374C40.5843 27.1096 40.1889 26.0533 40.1846 24.9594C40.1804 23.8655 40.5675 22.8061 41.276 21.9727C41.9845 21.1392 42.9678 20.5867 44.0481 20.4148C44.1236 20.4014 44.1998 20.3905 44.2764 20.382C44.3552 20.3732 44.4339 20.3693 44.513 20.3647C44.5836 20.3612 44.6542 20.3541 44.7248 20.3544C45.0919 20.3512 45.458 20.3919 45.8154 20.4756L45.8249 20.4657C41.8258 19.4104 38.2043 17.2511 35.3743 14.2348C32.5444 11.2183 30.6204 7.46656 29.8221 3.40827C29.603 2.30936 28.9574 1.34199 28.0268 0.717906C27.0961 0.0938264 25.9561 -0.136135 24.8563 0.078357C23.7565 0.292849 22.7864 0.934325 22.1585 1.86238C21.5305 2.79043 21.2958 3.92946 21.5057 5.03016C22.2319 8.76337 23.6542 12.3266 25.6985 15.5336C28.1074 19.3104 31.3141 22.5139 35.0934 24.919C31.2454 27.3512 27.9855 30.6076 25.5491 34.453C27.5937 37.6664 29.0141 41.2365 29.7359 44.9762C29.8153 45.3857 29.8336 45.8048 29.7903 46.2196C30.6311 42.2008 32.5787 38.4969 35.413 35.5262C38.2473 32.5556 41.8556 30.4363 45.8306 29.4076L45.8331 29.4038C45.4782 29.4886 45.1144 29.5309 44.7496 29.5298Z" fill="#36B2E5"/>
<path d="M25.5439 34.4601C25.5453 34.4581 25.546 34.4556 25.546 34.4531C25.546 34.4506 25.5453 34.4481 25.5439 34.446C23.1426 30.6768 19.9468 27.4777 16.18 25.0726C16.1779 25.0713 16.1754 25.0705 16.1728 25.0705C16.1702 25.0705 16.1677 25.0713 16.1656 25.0726L16.1546 25.0793C16.1565 25.0781 16.1581 25.0764 16.1591 25.0744C16.1602 25.0724 16.1608 25.0701 16.1608 25.0679C16.1608 25.0656 16.1602 25.0634 16.1591 25.0614C16.1581 25.0594 16.1565 25.0576 16.1546 25.0564C12.9508 23.0166 9.39206 21.5972 5.66384 20.8721C5.27776 20.7974 4.88312 20.777 4.49138 20.8114C3.55655 20.892 2.67494 21.2807 1.98487 21.9165C1.2948 22.5522 0.835307 23.3991 0.678482 24.3242C0.567458 25.0111 0.6299 25.7149 0.860132 26.3716C1.09036 27.0282 1.48108 27.617 1.99676 28.0841C2.58136 28.651 3.3167 29.0376 4.11503 29.198C4.14574 29.2047 4.1754 29.2146 4.20647 29.221C8.46969 30.0925 12.3793 32.2069 15.4424 35.2975C18.5056 38.3881 20.585 42.3165 21.4185 46.5873C21.6364 47.6863 22.2807 48.6542 23.2104 49.2793C24.1402 49.9044 25.2798 50.1358 26.3797 49.9227C27.4796 49.7097 28.4504 49.0697 29.0796 48.1427C29.7088 47.2156 29.9451 46.0772 29.737 44.9763C29.0152 41.2366 27.5948 37.6665 25.5502 34.4531" fill="#73C5E8"/>
</g>
<defs>
<clipPath id="clip0_201_3301">
<rect width="50" height="50" fill="white"/>
</clipPath>
</defs>
</svg>
