<svg xmlns="http://www.w3.org/2000/svg" width="110" height="22" viewBox="0 0 110 22"><path fill="#333" d="M29.3 17.41c-.93 0-1.84-.12-2.7-.37a6.42 6.42 0 01-2.17-1.05l.88-1.95a6.9 6.9 0 004.03 1.25c.77 0 1.37-.13 1.79-.38.41-.26.62-.6.62-1.05 0-.4-.19-.71-.57-.93a7.64 7.64 0 00-2.03-.65c-1.1-.23-1.97-.5-2.62-.81a3.42 3.42 0 01-1.42-1.17 3.1 3.1 0 01-.45-1.72c0-.75.2-1.42.62-2s1-1.05 1.75-1.39 1.62-.5 2.6-.5c.89 0 1.74.13 2.55.39.82.26 1.47.6 1.95 1.04l-.88 1.95a5.99 5.99 0 00-3.6-1.25 3 3 0 00-1.68.41 1.3 1.3 0 00-.62 1.14c0 .28.08.51.24.7s.42.34.79.48.9.28 1.58.44c1.6.35 2.74.8 3.44 1.35.7.55 1.04 1.32 1.04 2.3 0 1.16-.45 2.09-1.35 2.76-.9.68-2.17 1.01-3.79 1.01zm11.51-1.97c.27 0 .56-.01.85-.05l-.14 1.94c-.34.04-.68.07-1.02.07-1.32 0-2.28-.29-2.88-.87-.6-.57-.9-1.44-.9-2.62v-3.3h-1.64v-2h1.63V6.08h2.66v2.53h2.17v2h-2.17v3.28c0 1.04.48 1.55 1.44 1.55zM47 17.4c-.91 0-1.72-.19-2.4-.56a3.85 3.85 0 01-1.61-1.56 4.83 4.83 0 01-.56-2.39c0-.91.18-1.7.56-2.38.37-.68.9-1.2 1.6-1.56.7-.36 1.5-.55 2.41-.55s1.72.19 2.41.55c.7.36 1.23.88 1.6 1.56.38.67.57 1.47.57 2.38a4.8 4.8 0 01-.57 2.39c-.37.67-.9 1.2-1.6 1.56-.69.37-1.5.56-2.4.56zm0-2.03c1.3 0 1.94-.82 1.94-2.48 0-.83-.17-1.45-.5-1.86a1.74 1.74 0 00-1.44-.62c-1.29 0-1.93.83-1.93 2.48 0 1.66.64 2.48 1.93 2.48zm11.93-4.78l-1.5.15c-.73.07-1.25.28-1.56.63-.3.35-.46.8-.46 1.38v4.5h-2.65V8.62h2.55v1.47c.43-1 1.33-1.55 2.7-1.64l.77-.05zm7.73-1.96h2.6l-5.2 11.8h-2.7L63 16.77l-3.55-8.15h2.76l2.18 5.5zm8.76-.23c.75 0 1.42.19 1.99.55.58.36 1.02.88 1.35 1.56.32.67.48 1.45.48 2.35a5.5 5.5 0 01-.48 2.36 3.8 3.8 0 01-1.36 1.6c-.58.39-1.24.58-1.98.58-.6 0-1.14-.13-1.62-.38a2.7 2.7 0 01-1.1-1.05v1.29h-2.63V4.85h2.66v4.93c.26-.44.62-.78 1.1-1.02.47-.24 1-.36 1.6-.36zm-.77 6.97c.62 0 1.1-.22 1.44-.66.34-.44.51-1.06.51-1.85s-.17-1.4-.51-1.8c-.34-.42-.82-.63-1.44-.63s-1.1.21-1.45.64a2.86 2.86 0 00-.5 1.82c0 .8.16 1.41.5 1.84.34.43.83.64 1.45.64zM85 17.4c-.91 0-1.72-.19-2.4-.56a3.82 3.82 0 01-1.6-1.56 4.83 4.83 0 01-.57-2.39c0-.91.19-1.7.56-2.38.38-.68.91-1.2 1.6-1.56.7-.36 1.5-.55 2.41-.55s1.72.19 2.41.55c.7.36 1.23.88 1.6 1.56.38.67.57 1.47.57 2.38a4.9 4.9 0 01-.56 2.39c-.38.67-.91 1.2-1.6 1.56-.7.37-1.5.56-2.42.56zm0-2.03c1.3 0 1.94-.82 1.94-2.48 0-.83-.17-1.45-.5-1.86A1.74 1.74 0 0085 10.4c-1.29 0-1.93.83-1.93 2.48 0 1.66.64 2.48 1.93 2.48zm9.91 2.03c-.91 0-1.72-.19-2.4-.56a3.9 3.9 0 01-1.61-1.56 4.83 4.83 0 01-.56-2.39c0-.91.18-1.7.56-2.38.38-.68.9-1.2 1.6-1.56.7-.36 1.5-.55 2.41-.55s1.72.19 2.41.55c.7.36 1.23.88 1.6 1.56.38.67.57 1.47.57 2.38a4.9 4.9 0 01-.56 2.39c-.38.67-.91 1.2-1.6 1.56-.7.37-1.5.56-2.42.56zm0-2.03c1.3 0 1.94-.82 1.94-2.48 0-.83-.17-1.45-.5-1.86a1.74 1.74 0 00-1.44-.62c-1.29 0-1.93.83-1.93 2.48 0 1.66.64 2.48 1.93 2.48zM110 17.26h-3.26l-3.3-3.86v3.86h-2.66V4.85h2.65v7.46l3.2-3.68h3.16l-3.63 4.12z"/><path fill="#0abf53" d="M.68 20.27L0 2.11A1.1 1.1 0 011.04.97L16.48 0a1.1 1.1 0 011.18 1.1v19.8A1.1 1.1 0 0116.5 22l-14.76-.66a1.1 1.1 0 01-1.06-1.07z"/><path fill="#fff" d="M13.04 2.7l.1-2.53L15.27 0l.09 2.62a.16.16 0 01-.27.13l-.82-.64-.97.73a.16.16 0 01-.26-.14zm-.45 3.05H3.54v2.96h5.89c.36 0 .66.3.66.68v5.25H8.84a.66.66 0 01-.61-.43.68.68 0 01-.05-.25V10.2H5.7a2.31 2.31 0 00-2.14 1.47c-.11.29-.17.6-.17.9v2.65A2.34 2.34 0 005.7 17.6h9.2V8.12a2.36 2.36 0 00-1.41-2.18 2.3 2.3 0 00-.9-.19"/></svg>