<svg width="128" height="128" viewBox="0 0 128 128" fill="none" xmlns="http://www.w3.org/2000/svg">
<g clip-path="url(#clip0_309_874)">
<path d="M128 104.981C128.025 92.258 121.746 82.7125 112.422 79.2287C102.761 75.625 92.4336 78.7425 86.2172 87.4553C83.1651 91.7318 79.7891 95.2622 74.6753 96.3679C70.0784 97.3671 66.0484 96.4079 63.1271 92.2647C60.2245 88.148 60.2494 83.7983 62.5914 79.3286C69.8978 65.3735 77.2166 51.4183 84.4296 37.4099C89.4313 27.6912 88.198 16.3805 81.4522 8.31384C74.7999 0.380377 64.3168 -2.17085 55.0297 1.94575C50.1588 4.10398 46.3281 7.64106 43.7556 12.557C30.0959 38.6821 16.3988 64.7806 2.88852 90.999C-3.27175 102.949 0.764502 117.584 11.7334 124.511C22.4531 131.279 36.7046 128.015 43.0268 116.325C49.0251 105.241 57.7641 102.503 68.6583 103.948C76.1702 104.941 81.0598 109.737 84.9466 116.305C91.7795 127.849 105.682 131.386 116.576 124.338C124.026 119.516 127.757 112.235 128 104.981V104.981Z" fill="url(#paint0_linear_309_874)"/>
</g>
<defs>
<linearGradient id="paint0_linear_309_874" x1="0" y1="64" x2="128" y2="64" gradientUnits="userSpaceOnUse">
<stop stop-color="#4646FB"/>
<stop offset="1" stop-color="#BE4DFF"/>
</linearGradient>
<clipPath id="clip0_309_874">
<rect width="128" height="128" fill="white"/>
</clipPath>
</defs>
</svg>
