<svg width="569" height="128" viewBox="0 0 569 128" fill="none" xmlns="http://www.w3.org/2000/svg">
<path d="M128 104.981C128.025 92.258 121.746 82.7125 112.422 79.2287C102.761 75.625 92.4336 78.7425 86.2172 87.4553C83.1651 91.7318 79.7891 95.2622 74.6753 96.3679C70.0784 97.3671 66.0484 96.4079 63.1271 92.2647C60.2245 88.148 60.2494 83.7983 62.5914 79.3286C69.8978 65.3735 77.2166 51.4183 84.4296 37.4099C89.4313 27.6912 88.198 16.3805 81.4522 8.31384C74.7999 0.380377 64.3168 -2.17085 55.0297 1.94575C50.1588 4.10398 46.3281 7.64106 43.7556 12.557C30.0959 38.6821 16.3988 64.7806 2.88852 90.999C-3.27175 102.949 0.764502 117.584 11.7334 124.511C22.4531 131.279 36.7046 128.015 43.0268 116.325C49.0251 105.241 57.7641 102.503 68.6583 103.948C76.1702 104.941 81.0598 109.737 84.9466 116.305C91.7795 127.849 105.682 131.386 116.576 124.338C124.026 119.516 127.757 112.235 128 104.981V104.981Z" fill="url(#paint0_linear_309_894)"/>
<path d="M163.833 7.90198V120H243.118V99.276H188.482V7.90198H163.833Z" fill="#001F4D"/>
<path d="M330.688 120V38.831H308.394V81.378C308.394 89.6466 307.034 95.6127 304.312 99.276C301.591 102.835 297.195 104.614 291.124 104.614C285.786 104.614 282.071 102.992 279.977 99.747C277.884 96.3976 276.837 91.3736 276.837 84.675V38.831H254.543V88.757C254.543 93.781 254.962 98.3863 255.799 102.573C256.741 106.655 258.311 110.161 260.509 113.092C262.707 115.918 265.69 118.116 269.458 119.686C273.331 121.256 278.25 122.041 284.216 122.041C288.926 122.041 293.532 120.994 298.032 118.901C302.533 116.808 306.196 113.406 309.022 108.696H309.493V120H330.688Z" fill="#001F4D"/>
<path d="M348.237 38.831V120H370.531V72.9C370.531 68.9227 371.107 65.7303 372.258 63.323C373.409 60.811 374.77 58.927 376.34 57.671C378.015 56.3103 379.689 55.4206 381.364 55.002C383.143 54.4786 384.556 54.217 385.603 54.217C389.162 54.217 391.831 54.845 393.61 56.101C395.494 57.2523 396.802 58.8223 397.535 60.811C398.372 62.7996 398.843 64.9976 398.948 67.405C399.053 69.7076 399.105 72.0626 399.105 74.47V120H421.399V74.784C421.399 72.272 421.556 69.8123 421.87 67.405C422.289 64.893 423.021 62.695 424.068 60.811C425.219 58.8223 426.737 57.2523 428.621 56.101C430.61 54.845 433.174 54.217 436.314 54.217C439.454 54.217 441.914 54.7403 443.693 55.787C445.577 56.8336 446.99 58.2466 447.932 60.026C448.874 61.8053 449.45 63.8987 449.659 66.306C449.868 68.7133 449.973 71.2777 449.973 73.999V120H472.267V65.678C472.267 60.4446 471.534 55.9963 470.069 52.333C468.604 48.565 466.563 45.5297 463.946 43.227C461.329 40.9243 458.189 39.2496 454.526 38.203C450.863 37.1563 446.885 36.633 442.594 36.633C436.942 36.633 432.023 37.9937 427.836 40.715C423.754 43.4363 420.509 46.5763 418.102 50.135C415.904 45.111 412.659 41.6046 408.368 39.616C404.181 37.6273 399.524 36.633 394.395 36.633C389.057 36.633 384.295 37.7843 380.108 40.087C376.026 42.3896 372.52 45.6343 369.589 49.821H369.275V38.831H348.237Z" fill="#001F4D"/>
<path d="M542.526 70.702H506.259C506.364 69.132 506.678 67.3526 507.201 65.364C507.829 63.3753 508.823 61.4913 510.184 59.712C511.649 57.9326 513.533 56.4673 515.836 55.316C518.243 54.06 521.226 53.432 524.785 53.432C530.228 53.432 534.257 54.8973 536.874 57.828C539.595 60.7586 541.479 65.05 542.526 70.702ZM506.259 84.832H564.82C565.239 78.552 564.715 72.5337 563.25 66.777C561.785 61.0203 559.377 55.8916 556.028 51.391C552.783 46.8903 548.597 43.3317 543.468 40.715C538.339 37.9937 532.321 36.633 525.413 36.633C519.238 36.633 513.586 37.732 508.457 39.93C503.433 42.128 499.089 45.1633 495.426 49.036C491.763 52.804 488.937 57.3046 486.948 62.538C484.959 67.7713 483.965 73.4233 483.965 79.494C483.965 85.774 484.907 91.5306 486.791 96.764C488.78 101.997 491.553 106.498 495.112 110.266C498.671 114.034 503.014 116.965 508.143 119.058C513.272 121.047 519.028 122.041 525.413 122.041C534.624 122.041 542.474 119.948 548.963 115.761C555.452 111.574 560.267 104.614 563.407 94.88H543.782C543.049 97.392 541.061 99.7993 537.816 102.102C534.571 104.3 530.699 105.399 526.198 105.399C519.918 105.399 515.103 103.777 511.754 100.532C508.405 97.2873 506.573 92.054 506.259 84.832Z" fill="#001F4D"/>
<defs>
<linearGradient id="paint0_linear_309_894" x1="0" y1="64" x2="128" y2="64" gradientUnits="userSpaceOnUse">
<stop stop-color="#4646FB"/>
<stop offset="1" stop-color="#BE4DFF"/>
</linearGradient>
</defs>
</svg>
